<svg xmlns="http://www.w3.org/2000/svg" width="120" height="170" viewBox="0 0 120 170"><rect width="100%" height="100%" fill="#DDDDDD"/><path fill="#999999" d="M24.39 82.32h-2.57v1.71h2.17v.86h-2.17v2.36h-1.08v-5.78h3.65zm2.89 3.87v-.69q-.43.02-.72.07-.29.06-.47.14-.17.08-.25.2-.07.11-.07.24 0 .26.15.37t.4.11q.31 0 .53-.11t.43-.33m-2.09-2.16-.17-.31q.71-.65 1.7-.65.36 0 .65.12.28.12.48.33.19.21.29.5.11.29.11.64v2.59h-.45q-.14 0-.22-.04-.07-.04-.12-.17l-.09-.3q-.15.14-.3.25-.15.1-.31.18-.16.07-.34.11-.18.03-.4.03-.26 0-.48-.07t-.38-.21-.25-.34q-.09-.21-.09-.49 0-.15.05-.31.06-.15.17-.29.12-.14.31-.27.19-.12.46-.21.28-.09.64-.15t.83-.07v-.24q0-.41-.17-.61-.18-.2-.51-.2-.24 0-.4.06-.16.05-.28.12l-.22.13q-.09.05-.21.05-.11 0-.18-.05t-.12-.13m4.02-.88h.99v4.1h-.99zm1.12-1.2q0 .13-.05.24t-.14.2q-.08.08-.2.13-.11.05-.25.05-.12 0-.24-.05-.11-.05-.2-.13-.08-.09-.13-.2t-.05-.24.05-.25q.05-.11.13-.2.09-.08.2-.13.12-.05.24-.05.14 0 .25.05.12.05.2.13.09.09.14.2.05.12.05.25m.89-.64h.99v5.94h-.99zm2.75 3.42h1.87q0-.2-.06-.37-.05-.17-.16-.29-.11-.13-.27-.21-.17-.07-.39-.07-.43 0-.67.24-.25.25-.32.7m2.52.59h-2.54q.03.32.12.55.08.23.23.38.14.15.34.22.2.08.44.08t.41-.06q.18-.06.31-.12.13-.07.22-.13.1-.05.19-.05.13 0 .19.09l.28.36q-.16.19-.37.32-.2.13-.42.21t-.45.11-.45.03q-.43 0-.8-.14-.36-.14-.64-.42-.27-.28-.42-.69-.16-.41-.16-.95 0-.42.14-.79.13-.37.39-.64.25-.28.62-.44.36-.16.82-.16.39 0 .72.13.33.12.56.36.24.24.37.58.14.35.14.79 0 .23-.05.3-.05.08-.19.08m3.55.71v-1.84q-.17-.2-.36-.28-.2-.09-.43-.09-.22 0-.4.09-.18.08-.31.25t-.2.43-.07.62.06.61.17.41.26.23q.16.07.35.07.31 0 .52-.13.22-.13.41-.37m0-4.72h.99v5.94h-.6q-.2 0-.25-.18l-.09-.4q-.24.29-.57.46-.32.18-.75.18-.33 0-.61-.14t-.48-.41q-.21-.26-.32-.65-.11-.4-.11-.9 0-.46.13-.85.12-.39.35-.68.24-.29.56-.45t.73-.16q.34 0 .59.11.24.11.43.29zm5.28 6q-.54 0-.82-.3-.29-.3-.29-.83v-2.29h-.42q-.08 0-.14-.06-.05-.05-.05-.15v-.39l.66-.11.21-1.12q.02-.08.07-.13.06-.04.15-.04h.51v1.29h1.09v.71H45.2v2.22q0 .19.09.3.1.11.26.11.09 0 .15-.02.07-.03.11-.05.05-.02.08-.05.04-.02.08-.02t.07.02q.03.03.06.07l.29.48q-.21.18-.49.27t-.58.09m3.42-4.23q.46 0 .83.15.38.15.64.42.27.27.41.66.15.4.15.88 0 .49-.15.88-.14.39-.41.67-.26.27-.64.42-.37.15-.83.15t-.83-.15q-.38-.15-.65-.42-.26-.28-.41-.67-.14-.39-.14-.88 0-.48.14-.88.15-.39.41-.66.27-.27.65-.42.37-.15.83-.15m0 3.47q.51 0 .76-.34.25-.35.25-1.01 0-.67-.25-1.01-.25-.35-.76-.35-.52 0-.77.35t-.25 1.01.25 1q.25.35.77.35m5.96-.19h2.31v.89h-3.39v-5.78h1.08zm4.74-3.28q.45 0 .83.15.37.15.64.42.26.27.41.66.14.4.14.88 0 .49-.14.88-.15.39-.41.67-.27.27-.64.42-.38.15-.83.15-.46 0-.84-.15-.37-.15-.64-.42-.27-.28-.41-.67-.15-.39-.15-.88 0-.48.15-.88.14-.39.41-.66t.64-.42q.38-.15.84-.15m0 3.47q.51 0 .76-.34.24-.35.24-1.01 0-.67-.24-1.01-.25-.35-.76-.35-.52 0-.77.35t-.25 1.01.25 1q.25.35.77.35m4.95-.36v-.69q-.43.02-.72.07-.3.06-.47.14-.18.08-.25.2-.08.11-.08.24 0 .26.15.37.16.11.41.11.3 0 .52-.11t.44-.33m-2.09-2.16-.18-.31q.71-.65 1.71-.65.36 0 .64.12t.48.33.3.5.1.64v2.59h-.45q-.14 0-.21-.04-.08-.04-.12-.17l-.09-.3q-.16.14-.31.25-.14.1-.3.18-.16.07-.35.11-.18.03-.4.03-.26 0-.48-.07t-.38-.21-.25-.34q-.08-.21-.08-.49 0-.15.05-.31.05-.15.17-.29t.3-.27q.19-.12.47-.21.27-.09.63-.15.37-.06.84-.07v-.24q0-.41-.18-.61t-.51-.2q-.24 0-.4.06-.15.05-.27.12l-.22.13q-.1.05-.22.05-.1 0-.18-.05-.07-.05-.11-.13m6.55 2v-1.84q-.16-.2-.36-.28-.2-.09-.43-.09-.22 0-.4.09-.18.08-.31.25t-.2.43q-.06.26-.06.62t.05.61q.06.25.17.41t.26.23q.16.07.35.07.31 0 .53-.13.21-.13.4-.37m0-4.72h.99v5.94h-.6q-.2 0-.25-.18l-.08-.4q-.25.29-.57.46-.33.18-.75.18-.34 0-.62-.14t-.48-.41q-.2-.26-.31-.65-.11-.4-.11-.9 0-.46.12-.85t.36-.68q.23-.29.55-.45.33-.16.73-.16.34 0 .59.11.24.11.43.29zm5.15.16v5.78h-1.08v-5.78zm2.12 5.78h-.99v-4.1h.61q.19 0 .25.18l.06.3q.11-.12.23-.22t.25-.17q.14-.07.29-.12.15-.04.34-.04.39 0 .64.21t.37.56q.1-.2.24-.35t.32-.24q.17-.09.36-.13.2-.05.39-.05.34 0 .61.11.26.1.44.3t.27.49q.1.29.1.66v2.61h-.99v-2.61q0-.39-.17-.59t-.51-.2q-.15 0-.28.05t-.23.15q-.09.1-.15.25t-.06.34v2.61h-.99v-2.61q0-.41-.16-.6-.17-.19-.49-.19-.22 0-.4.11-.19.1-.35.29zM84 86.19v-.69q-.43.02-.72.07-.29.06-.47.14-.17.08-.25.2-.07.11-.07.24 0 .26.15.37t.4.11q.31 0 .53-.11t.43-.33m-2.09-2.16-.17-.31q.71-.65 1.7-.65.36 0 .65.12.28.12.48.33.19.21.29.5.11.29.11.64v2.59h-.45q-.14 0-.22-.04-.07-.04-.12-.17l-.09-.3q-.15.14-.3.25-.15.1-.31.18-.16.07-.34.11-.18.03-.4.03-.26 0-.48-.07t-.38-.21-.25-.34q-.09-.21-.09-.49 0-.15.05-.31.06-.15.17-.29.12-.14.31-.27.19-.12.46-.21.28-.09.64-.15t.83-.07v-.24q0-.41-.17-.61-.18-.2-.51-.2-.24 0-.4.06-.16.05-.28.12l-.22.13q-.09.05-.21.05-.11 0-.18-.05t-.12-.13m5.48 1.07q.19 0 .32-.05.14-.05.23-.14t.14-.21q.04-.13.04-.27 0-.31-.18-.49-.18-.17-.55-.17-.36 0-.54.17-.18.18-.18.49 0 .14.04.26.05.13.14.22t.23.14q.13.05.31.05m1.12 2.33q0-.12-.07-.19-.07-.08-.2-.12-.12-.04-.29-.06-.16-.02-.35-.03l-.38-.02q-.2-.01-.39-.03-.16.09-.27.21-.1.13-.1.29 0 .11.06.2.05.1.17.17.12.06.3.1.19.04.46.04.28 0 .48-.04t.33-.12q.13-.07.19-.17.06-.11.06-.23m-.2-4.14h1.18v.36q0 .18-.21.22l-.37.07q.09.21.09.46 0 .31-.12.55-.13.25-.34.42-.22.17-.51.27-.3.09-.64.09-.12 0-.23-.01t-.22-.03q-.19.11-.19.26 0 .12.11.18.12.06.31.08.18.02.42.03t.5.03q.25.02.49.07t.43.15q.18.11.3.3.11.18.11.48 0 .27-.13.52-.14.26-.39.46t-.62.32-.85.12q-.46 0-.8-.09-.35-.09-.58-.24-.22-.15-.34-.34-.11-.2-.11-.41 0-.29.18-.48.17-.2.47-.31-.16-.09-.26-.23-.09-.14-.09-.36 0-.1.03-.19.04-.1.1-.2.07-.09.17-.18t.23-.15q-.31-.17-.49-.45-.17-.28-.17-.66 0-.3.12-.55.12-.24.34-.42.22-.17.51-.26.3-.1.65-.1.27 0 .5.06.23.05.42.16m2.59 1.44h1.86q0-.2-.05-.37-.06-.17-.16-.29-.11-.13-.28-.21-.16-.07-.38-.07-.43 0-.68.24-.24.25-.31.7m2.52.59h-2.54q.02.32.11.55t.23.38q.15.15.34.22.2.08.44.08t.42-.06q.17-.06.3-.12.13-.07.23-.13.1-.05.19-.05.12 0 .18.09l.29.36q-.17.19-.37.32-.21.13-.43.21t-.45.11-.45.03q-.42 0-.79-.14t-.64-.42-.43-.69-.16-.95q0-.42.14-.79t.39-.64q.25-.28.62-.44t.83-.16q.38 0 .71.13.33.12.57.36.23.24.37.58.13.35.13.79 0 .23-.05.3-.05.08-.18.08m.83 1.39q0-.13.04-.24.05-.11.13-.19t.19-.13.24-.05.24.05.19.13.13.19.05.24q0 .12-.05.23t-.13.19-.19.13-.24.05-.24-.05-.19-.13-.13-.19q-.04-.11-.04-.23m1.9 0q0-.13.04-.24.05-.11.13-.19t.19-.13.24-.05.24.05.19.13.13.19.05.24q0 .12-.05.23t-.13.19-.19.13-.24.05-.24-.05-.19-.13-.13-.19q-.04-.11-.04-.23m1.9 0q0-.13.04-.24.05-.11.13-.19t.19-.13.24-.05.24.05.19.13.13.19.05.24q0 .12-.05.23t-.13.19-.19.13-.24.05-.24-.05-.19-.13-.13-.19q-.04-.11-.04-.23"/></svg>